<svg
  width="692"
  height="929"
  viewBox="0 0 692 929"
  fill="none"
  xmlns="http://www.w3.org/2000/svg"
>
<g clip-path="url(#clip0_370_992)">
<path
      d="M796.818 234.932C789.692 249.842 775.689 253.979 743.024 254.534C710.853 255.216 660.022 252.313 590.555 256.043C521.55 258.661 450.732 268.088 396.537 267.671C342.457 267.551 305 257.582 305.452 228.283C305.425 200.364 348.199 161.574 414.338 137.977C479.68 113.545 568.388 104.305 641.714 116.194C716.746 127.744 758.942 152.778 780.232 175.682C801.647 199.047 802.156 220.281 796.818 234.932Z"
      stroke="#601FFF"
      strokeWidth="5"
      stroke-miterlimit="10"
    />
<path
      d="M628.04 117.524C705.237 127.887 749.314 152.867 771.973 176.046C794.776 199.707 796.167 221.569 791.345 236.886C784.719 252.505 770.622 257.222 737.357 258.76C704.594 260.416 652.664 258.891 582.044 264.721C511.834 269.374 440.137 281.099 384.746 281.942C329.509 283.107 290.583 273.391 289.47 242.551C287.918 213.161 329.809 171.501 396.413 145.34C462.145 118.309 552.591 106.781 628.034 117.522L628.04 117.524Z"
      stroke="#5E25FE"
      strokeWidth="5"
      stroke-miterlimit="10"
    />
<path
      d="M614.274 119.099C693.598 128.199 739.571 153.089 763.63 176.515C787.853 200.453 790.155 222.925 785.9 238.909C779.818 255.241 765.686 260.55 731.875 263.104C698.588 265.769 645.621 265.679 573.972 273.702C502.666 280.476 430.207 294.589 373.671 296.767C317.323 299.285 276.904 289.87 274.084 257.478C270.871 226.602 311.711 182.007 378.653 153.206C444.651 123.495 536.757 109.583 614.28 119.101L614.274 119.099Z"
      stroke="#5B2BFC"
      strokeWidth="5"
      stroke-miterlimit="10"
    />
<path
      d="M600.441 120.938C681.859 128.702 729.742 153.454 755.219 177.11C780.88 201.293 784.137 224.376 780.495 241.026C775.007 258.067 760.882 263.982 726.586 267.59C692.835 271.3 638.911 272.707 566.338 283.001C494.048 291.989 420.962 308.581 363.329 312.159C305.927 316.102 263.978 307.03 259.32 273.077C254.322 240.712 293.912 193.112 361.061 161.589C427.187 129.118 520.865 112.718 600.434 120.94L600.441 120.938Z"
      stroke="#5931FB"
      strokeWidth="5"
      stroke-miterlimit="10"
    />
<path
      d="M586.537 123.035C670.012 129.388 719.813 153.965 746.735 177.816C773.861 202.22 778.107 225.902 775.134 243.217C770.291 260.972 756.217 267.495 721.501 272.195C687.347 276.984 632.552 279.946 559.179 292.602C486.024 303.883 412.446 323.049 353.772 328.103C295.369 333.54 251.872 324.862 245.233 289.335C238.311 255.474 276.472 204.809 343.685 170.475C409.794 135.162 504.954 116.18 586.537 123.035Z"
      stroke="#5638FA"
      strokeWidth="5"
      stroke-miterlimit="10"
    />
<path
      d="M572.584 125.408C658.076 130.277 709.8 154.632 738.192 178.658C766.8 203.259 772.078 227.527 769.814 245.501C765.66 263.966 751.684 271.11 716.612 276.932C682.116 282.831 626.531 287.407 552.495 302.51C478.592 316.17 404.676 338.003 345.015 344.597C285.677 351.597 240.605 343.366 231.852 306.268C222.873 270.909 259.406 217.112 326.543 179.893C392.491 141.658 489.037 120 572.584 125.408Z"
      stroke="#543EF8"
      strokeWidth="5"
      stroke-miterlimit="10"
    />
<path
      d="M558.581 128.053C646.048 131.359 699.704 155.457 729.579 179.625C759.697 204.395 766.035 229.235 764.535 247.875C761.121 267.049 747.285 274.82 711.925 281.794C677.156 288.833 620.867 295.084 546.3 312.715C471.787 328.836 397.676 353.422 337.103 361.636C276.899 370.274 230.234 362.536 219.211 323.859C208.031 287.002 242.734 230.015 309.645 189.831C375.274 148.595 473.11 124.161 558.58 128.057L558.581 128.053Z"
      stroke="#5144F7"
      strokeWidth="5"
      stroke-miterlimit="10"
    />
<path
      d="M544.552 130.98C633.949 132.645 689.543 156.438 720.927 180.727C752.573 205.639 760.01 231.043 759.316 250.334C756.694 270.216 743.041 278.621 707.454 286.782C672.479 294.997 615.576 302.969 540.621 323.211C465.63 341.873 391.496 369.307 330.071 379.206C269.072 389.552 220.795 382.362 207.361 342.11C193.845 303.757 226.506 243.523 293.038 200.299C358.19 155.983 457.214 128.677 544.558 130.981L544.552 130.98Z"
      stroke="#4F4AF5"
      strokeWidth="5"
      stroke-miterlimit="10"
    />
<path
      d="M530.496 134.191C621.771 134.145 679.308 157.587 712.216 181.961C745.417 206.986 753.982 232.941 754.138 252.883C752.354 273.468 738.933 282.515 703.186 291.891C668.076 301.308 610.645 311.058 535.445 333.998C460.12 355.284 386.126 385.651 323.931 397.308C262.221 409.433 212.306 402.844 196.315 361.021C180.311 321.176 210.721 257.639 276.71 211.295C341.222 163.823 441.318 133.548 530.49 134.19L530.496 134.191Z"
      stroke="#4C50F4"
      strokeWidth="5"
      stroke-miterlimit="10"
    />
<path
      d="M516.43 137.697C609.534 135.858 669.012 158.906 703.462 183.342C738.23 208.451 747.966 234.944 749.011 255.531C748.109 276.815 734.964 286.507 699.133 297.129C663.954 307.78 606.097 319.362 530.811 345.071C455.298 369.062 381.63 402.447 318.743 415.936C256.399 429.908 204.842 423.985 186.141 380.595C167.506 339.267 195.439 272.375 260.727 222.839C324.425 172.139 425.485 138.798 516.43 137.697Z"
      stroke="#4A56F3"
      strokeWidth="5"
      stroke-miterlimit="10"
    />
<path
      d="M502.365 141.499C597.242 137.79 658.665 160.401 694.671 184.868C731.028 210.032 741.962 237.049 743.95 258.271C743.983 280.247 731.149 290.59 695.305 302.483C660.127 314.393 601.944 327.856 526.736 356.419C451.186 383.186 378.031 419.681 314.541 435.071C251.659 450.969 198.441 445.759 176.868 400.818C155.449 358.019 180.675 287.721 245.09 234.92C307.804 180.918 409.707 144.413 502.371 141.5L502.365 141.499Z"
      stroke="#475DF1"
      strokeWidth="5"
      stroke-miterlimit="10"
    />
<path
      d="M488.308 145.602C584.894 139.945 648.261 162.076 685.844 186.543C723.803 211.732 735.97 239.26 738.946 261.112C739.954 283.773 727.482 294.768 691.691 307.965C656.59 321.162 598.177 336.556 523.212 368.046C447.789 397.668 375.343 437.351 311.333 454.716C248.003 472.605 193.114 468.178 168.515 421.693C144.156 377.432 166.448 303.684 229.817 247.545C291.363 190.169 393.986 150.405 488.308 145.602Z"
      stroke="#4563F0"
      strokeWidth="5"
      stroke-miterlimit="10"
    />
<path
      d="M474.267 150.014C572.5 142.334 637.817 163.934 676.984 188.371C716.565 213.556 729.995 241.577 733.999 264.054C736.033 287.395 723.961 299.046 688.301 313.567C653.347 328.072 594.812 345.448 520.266 379.94C445.142 412.491 373.606 455.446 309.178 474.861C245.501 494.815 188.933 491.23 161.145 443.217C133.69 397.514 152.804 320.27 214.944 260.725C275.141 199.908 378.351 156.786 474.266 150.022L474.267 150.014Z"
      stroke="#4269EF"
      strokeWidth="5"
      stroke-miterlimit="10"
    />
<path
      d="M460.265 154.732C560.088 144.95 627.341 165.973 668.106 190.349C709.322 215.501 724.052 243.998 729.125 267.085C732.231 291.101 720.597 303.406 685.144 319.274C650.419 335.115 591.87 354.521 517.922 392.084C443.263 427.633 372.862 473.947 308.119 495.482C244.205 517.575 185.954 514.895 154.803 465.365C124.584 417.604 139.312 338.079 200.414 274.378C230.271 242.393 270.415 214.235 315.777 193.687C361.055 172.995 411.557 159.912 460.265 154.732Z"
      stroke="#406FED"
      strokeWidth="5"
      stroke-miterlimit="10"
    />
<path
      d="M446.309 159.768C547.647 147.805 616.834 168.21 659.212 192.492C702.072 217.578 718.129 246.537 724.324 270.229C728.543 294.907 717.397 307.867 682.226 325.112C647.801 342.311 589.353 363.791 516.195 404.497C442.186 443.118 373.136 492.86 308.179 516.588C244.136 540.891 184.193 539.177 149.527 488.163C133.307 463.62 126.872 430.493 132.957 395.183C138.85 359.856 157.268 322.347 186.424 288.659C215.442 254.889 255.194 224.935 300.604 202.801C345.926 180.518 396.896 166.047 446.319 159.779L446.309 159.768Z"
      stroke="#3D75EC"
      strokeWidth="5"
      stroke-miterlimit="10"
    />
<path
      d="M432.407 165.123C535.189 150.903 606.305 170.639 650.309 194.796C694.834 219.781 712.248 249.19 719.593 273.47C724.972 298.801 714.352 312.418 679.542 331.056C645.5 349.634 587.262 373.231 515.093 417.149C441.924 458.909 374.454 512.158 309.405 538.152C245.354 564.735 183.721 564.058 145.35 511.576C127.377 486.326 119.015 451.966 123.442 415.135C127.669 378.29 144.683 338.981 172.901 303.476C200.976 267.887 240.249 236.1 285.637 212.337C330.924 188.419 382.315 172.522 432.413 165.124L432.407 165.123Z"
      stroke="#3B7BEB"
      strokeWidth="5"
      stroke-miterlimit="10"
    />
<path
      d="M418.575 170.803C522.727 154.25 595.757 173.265 641.396 197.266C687.594 222.121 706.395 251.957 714.944 276.818C721.529 302.791 711.479 317.064 677.107 337.114C643.526 357.09 585.621 382.847 514.637 430.045C443.554 475.77 375.827 531.106 311.876 560.201C279.845 574.664 248.477 582.281 219.023 579.018C189.737 575.867 162.364 561.835 142.321 535.616C122.508 509.672 112.113 474.077 114.762 435.72C117.207 397.347 132.703 356.209 159.883 318.857C186.907 281.418 225.617 247.757 270.903 222.327C316.084 196.736 367.843 179.368 418.575 170.806L418.575 170.803Z"
      stroke="#3882E9"
      strokeWidth="5"
      stroke-miterlimit="10"
    />
<path
      d="M404.827 176.807C510.267 157.837 585.204 176.09 632.487 199.899C680.365 224.591 700.583 254.84 710.371 280.264C718.204 306.869 708.764 321.792 674.912 343.279C641.868 364.672 584.42 392.628 514.835 443.169C445.069 492.18 379.253 551.136 315.536 582.658C283.621 598.33 251.931 606.854 221.55 604.006C191.355 601.271 162.461 587.17 140.483 560.261C118.751 533.635 106.201 496.81 106.962 456.915C107.506 417.004 121.368 374.021 147.404 334.787C173.273 295.465 211.321 259.897 256.433 232.758C301.435 205.452 353.502 186.575 404.826 176.811L404.827 176.807Z"
      stroke="#3688E8"
      strokeWidth="5"
      stroke-miterlimit="10"
    />
<path
      d="M391.167 183.142C497.813 161.683 574.651 179.121 623.579 202.706C673.146 227.201 694.81 257.844 705.884 283.819C715.013 311.04 706.214 326.613 672.974 349.552C640.559 372.382 583.689 402.578 515.722 456.52C447.486 508.878 383.836 571.527 320.482 605.544C288.749 622.462 256.774 631.925 225.458 629.522C194.347 627.236 163.888 613.087 139.88 585.508C116.136 558.221 101.316 520.168 100.073 478.721C98.5976 437.263 110.699 392.41 135.478 351.271C160.082 310.041 197.365 272.521 242.23 243.638C286.974 214.582 339.29 194.153 391.167 183.142Z"
      stroke="#338EE7"
      strokeWidth="5"
      stroke-miterlimit="10"
    />
<path
      d="M377.618 189.816C484.205 165.71 565.252 182.445 614.769 205.699C664.82 229.881 690.27 261.057 701.489 287.491C711.954 315.319 703.843 331.534 671.293 355.94C639.584 380.222 583.43 412.694 517.306 470.101C450.814 525.86 389.596 592.276 326.746 628.858C295.263 647.054 263.043 657.495 230.791 655.567C198.755 653.761 166.692 639.597 140.563 611.361C114.72 583.426 97.5154 544.153 94.1415 501.15C90.5232 458.137 100.736 411.394 124.144 368.317C147.366 325.15 183.79 285.647 228.324 254.976C272.726 224.125 325.231 202.105 377.618 189.816Z"
      stroke="#3194E5"
      strokeWidth="5"
      stroke-miterlimit="10"
    />
<path
      d="M364.182 196.823C471.765 170.08 554.747 185.887 605.894 208.854C657.617 232.78 684.629 264.292 697.178 291.256C709.022 319.673 701.644 336.526 669.867 362.42C638.956 388.169 583.648 422.953 519.599 483.879C455.084 543.102 396.567 613.344 334.369 652.561C303.208 672.073 270.787 683.52 237.59 682.103C204.629 680.811 170.904 666.657 142.572 637.787C114.543 609.226 94.8243 568.739 89.1942 524.176C83.3068 479.604 91.5022 430.955 113.426 385.916C135.152 340.784 170.613 299.26 214.73 266.763C258.709 234.085 311.345 210.432 364.188 196.825L364.182 196.823Z"
      stroke="#2E9AE4"
      strokeWidth="5"
      stroke-miterlimit="10"
    />
<path
      d="M350.876 204.17C404.568 189.224 453.64 185.853 494.93 188.68C536.393 191.575 570.073 200.669 597.042 212.193C650.447 235.828 679.044 267.658 692.964 295.139C706.233 324.135 699.621 341.621 668.711 369.011C638.684 396.237 584.352 433.369 522.619 497.867C460.314 560.604 404.78 634.738 343.381 676.658C312.624 697.518 280.036 710.01 245.898 709.138C212.009 708.392 176.57 694.279 145.941 664.798C115.632 635.634 93.2834 593.941 85.2595 547.812C76.9714 501.676 83.0145 451.102 103.334 404.074C123.444 356.951 157.836 313.375 201.45 279.015C244.916 244.468 297.616 219.141 350.875 204.178L350.876 204.17Z"
      stroke="#2CA0E2"
      strokeWidth="5"
      stroke-miterlimit="10"
    />
<path
      d="M337.718 211.866C391.796 195.525 441.569 191.2 483.636 193.377C525.882 195.623 560.422 204.368 588.227 215.714C643.309 239.023 673.529 271.149 688.851 299.127C703.588 328.683 697.782 346.793 667.823 375.693C638.772 404.41 585.567 443.92 526.397 512.04C466.549 578.345 414.281 656.427 353.847 701.119C323.572 723.363 290.866 736.934 255.78 736.642C220.966 736.474 183.761 722.44 150.741 692.368C118.057 662.622 92.943 619.735 82.4056 572.037C71.5842 524.335 75.3403 471.819 93.9287 422.779C112.301 373.642 145.507 327.973 188.54 291.715C231.406 255.262 284.097 228.223 337.718 211.866Z"
      stroke="#29A7E1"
      strokeWidth="5"
      stroke-miterlimit="10"
    />
<path
      d="M324.72 219.906C379.127 202.127 429.575 196.822 472.401 198.321C515.411 199.89 550.804 208.268 579.455 219.419C636.222 242.369 668.083 274.771 684.855 303.227C701.031 332.575 696.208 352.778 667.228 382.523C639.172 411.967 587.37 455.357 530.95 526.404C473.8 596.321 425.107 678.412 365.805 725.941C336.094 749.602 303.318 764.288 267.281 764.607C231.535 765.05 192.523 751.128 157.011 720.488C121.858 690.183 93.8543 646.119 80.6579 596.851C67.1698 547.586 68.4962 493.116 85.2272 442.036C101.729 390.859 133.644 343.067 175.994 304.878C218.174 266.488 270.786 237.693 324.714 219.905L324.72 219.906Z"
      stroke="#27ADE0"
      strokeWidth="5"
      stroke-miterlimit="10"
    />
<path
      d="M311.888 228.295C366.568 209.046 417.664 202.722 461.229 203.518C504.992 204.383 541.229 212.369 570.718 223.311C629.173 245.866 662.7 278.52 680.952 307.436C698.636 337.285 694.775 358.147 666.906 389.398C639.967 420.325 589.658 466.201 536.284 540.939C482.093 614.514 437.289 700.67 379.28 751.104C350.213 776.213 317.426 792.053 280.442 793.019C243.768 794.114 202.89 780.333 164.791 749.152C127.068 718.314 96.0378 673.085 80.0549 622.252C63.7615 571.42 62.5087 514.986 77.2604 461.847C91.7642 408.611 122.273 358.667 163.852 318.504C205.247 278.138 257.707 247.548 311.895 228.293L311.888 228.295Z"
      stroke="#24B3DE"
      strokeWidth="5"
      stroke-miterlimit="10"
    />
<path
      d="M677.166 311.762C696.4 342.093 693.543 363.602 666.864 396.371C641.129 428.787 592.477 477.174 542.422 555.649C491.457 632.928 450.855 723.195 394.323 776.601C366 803.194 333.246 820.219 295.311 821.871C257.706 823.649 214.915 810.048 174.127 778.355C133.743 747.017 99.5502 700.638 80.6285 648.24C61.3825 595.847 57.4138 537.439 70.0454 482.222C82.4182 426.901 111.397 374.774 152.104 332.605C192.617 290.225 244.857 257.808 299.238 237.046C354.138 216.284 405.843 208.918 450.135 208.984C494.625 209.119 531.701 216.691 562.032 227.406C622.178 249.531 657.395 282.41 677.163 311.774L677.166 311.762Z"
      stroke="#22B9DD"
      strokeWidth="5"
      stroke-miterlimit="10"
    />
</g>
<defs>
<clipPath id="clip0_370_992">
<rect
        width="778.647"
        height="713.227"
        fill="white"
        transform="translate(880.958 173.192) rotate(104.054)"
      />
</clipPath>
</defs>
</svg>
