<svg
  width="760"
  height="961"
  viewBox="0 0 760 961"
  fill="none"
  xmlns="http://www.w3.org/2000/svg"
>
<g clip-path="url(#clip0_370_1020)">
<path
      d="M467.319 52.1454C520.373 53.0304 609.698 110.297 660.566 192.226C713.522 273.506 728.021 379.457 679.657 462.891C633.375 548.136 550.175 593.728 484.269 613.395C416.41 633.146 365.827 626.969 339.878 610.798C314.075 593.077 313.665 568.79 325.948 533.763C337.924 498.361 362.613 452.211 379.72 382.149C398.669 313.298 395.686 232.057 398.037 165.925C401.081 100.232 409.441 49.6475 467.337 52.1479L467.319 52.1454Z"
      stroke="#601FFF"
      stroke-width="5"
      stroke-miterlimit="10"
    />
<path
      d="M380.073 389.347C401.298 320.807 400.919 239.456 405.758 173.145C411.305 107.293 422.089 56.4746 481.979 59.6239C536.93 61.0812 627.158 119.849 676.689 203.233C728.417 285.957 739.485 393.292 686.819 476.759C636.21 562.095 549.361 606.536 481.5 624.895C411.579 643.323 360.647 635.669 334.747 618.517C309.104 599.785 308.982 575.109 322.029 540.144C334.772 504.787 360.668 459.131 380.09 389.349L380.073 389.347Z"
      stroke="#5E25FE"
      stroke-width="5"
      stroke-miterlimit="10"
    />
<path
      d="M380.222 396.462C403.735 328.272 405.956 246.838 413.316 180.37C421.381 114.387 434.585 63.3611 496.446 67.2008C553.288 69.2656 644.341 129.578 692.446 214.413C742.873 298.588 750.368 407.297 693.32 490.731C638.319 576.105 547.831 619.324 478.073 636.338C406.17 653.401 355.017 644.252 329.257 626.096C303.886 606.334 304.088 581.272 317.898 546.379C331.407 511.066 358.507 465.93 380.222 396.462Z"
      stroke="#5B2BFC"
      stroke-width="5"
      stroke-miterlimit="10"
    />
<path
      d="M380.168 403.486C405.947 335.668 410.8 254.192 420.677 187.593C431.273 121.509 446.909 70.3223 510.702 74.8651C569.415 77.5614 661.216 139.461 707.801 225.77C756.817 311.408 760.616 421.465 699.124 504.803C639.648 590.166 545.531 632.084 473.974 647.705C400.167 663.35 348.919 652.706 323.41 633.535C298.417 612.748 298.999 587.282 313.572 552.46C327.865 517.204 356.147 472.602 380.17 403.469L380.168 403.486Z"
      stroke="#5931FB"
      stroke-width="5"
      stroke-miterlimit="10"
    />
<path
      d="M379.894 410.416C407.935 343.007 415.415 261.505 427.84 194.816C440.98 128.667 459.047 77.3289 524.763 82.6364C585.323 86.0057 677.814 149.52 722.77 237.307C770.269 324.401 770.25 435.788 704.231 518.974C640.2 604.253 542.499 644.814 469.219 659.015C393.602 673.211 342.388 661.045 317.237 640.865C292.713 619.04 293.729 593.176 309.064 558.435C324.156 523.247 353.585 479.183 379.893 410.425L379.894 410.416Z"
      stroke="#5638FA"
      stroke-width="5"
      stroke-miterlimit="10"
    />
<path
      d="M379.434 417.257C409.734 350.273 419.838 268.782 434.807 202.028C450.488 135.834 471.014 84.3926 538.598 90.4837C600.965 94.5564 694.086 159.722 737.325 248.982C783.215 337.547 779.238 450.227 708.627 533.207C639.978 618.348 538.685 657.478 463.776 670.22C386.409 682.93 335.392 669.238 310.692 648.026C286.765 625.153 288.233 598.886 304.365 564.23C320.256 529.11 350.811 485.609 379.416 417.255L379.434 417.257Z"
      stroke="#543EF8"
      stroke-width="5"
      stroke-miterlimit="10"
    />
<path
      d="M378.772 424.007C411.307 357.49 424.066 276.04 441.593 209.252C459.827 143.057 482.793 91.5194 552.256 98.4407C616.405 103.258 710.081 170.1 751.493 260.845C795.683 350.886 787.609 464.831 712.328 547.53C638.979 632.468 534.14 670.102 457.662 681.347C378.622 692.529 327.946 677.305 303.841 655.063C280.618 631.149 282.594 604.46 299.539 569.909C316.247 534.858 347.907 491.935 378.788 424.018L378.772 424.007Z"
      stroke="#5144F7"
      stroke-width="5"
      stroke-miterlimit="10"
    />
<path
      d="M377.908 430.657C412.693 364.636 428.103 283.253 448.166 216.454C468.95 150.277 494.387 98.6832 565.671 106.463C631.564 112.046 725.717 180.608 765.194 272.841C807.577 364.351 795.266 479.532 715.251 561.888C637.123 646.548 528.763 682.627 450.829 692.338C370.23 701.954 320.039 685.2 296.6 661.929C274.207 636.973 276.745 609.869 294.484 575.421C312.009 540.449 344.736 498.116 377.889 430.663L377.908 430.657Z"
      stroke="#4F4AF5"
      stroke-width="5"
      stroke-miterlimit="10"
    />
<path
      d="M376.86 437.208C413.855 371.705 431.93 290.419 454.56 223.649C477.908 157.519 505.812 105.904 578.892 114.583C646.505 120.974 741.076 191.291 778.495 284.995C818.961 377.987 802.293 494.368 717.464 576.307C634.493 660.636 522.64 695.091 443.327 703.235C361.245 711.25 311.702 692.961 289.056 668.652C267.601 642.652 270.737 615.129 289.289 580.778C307.648 545.888 341.421 504.169 376.842 437.206L376.86 437.208Z"
      stroke="#4C50F4"
      stroke-width="5"
      stroke-miterlimit="10"
    />
<path
      d="M375.626 443.671C414.845 378.724 435.581 297.561 460.774 230.846C486.682 164.797 517.048 113.179 591.903 122.79C661.215 130.013 756.092 202.116 791.379 297.297C829.823 391.756 808.639 509.306 718.953 590.768C631.076 674.694 515.74 707.456 435.158 714.011C351.671 720.391 302.936 700.573 281.208 675.235C260.798 648.196 264.606 620.247 283.967 586.019C303.176 551.221 337.959 510.121 375.626 443.671Z"
      stroke="#4A56F3"
      stroke-width="5"
      stroke-miterlimit="10"
    />
<path
      d="M374.21 450.027C415.613 385.656 439.023 304.655 466.794 238.015C495.275 172.077 528.117 120.502 604.689 131.064C675.641 139.156 770.785 213.065 803.796 309.723C840.109 405.659 814.29 524.335 719.665 605.246C626.786 688.7 508.048 719.7 426.292 724.635C341.511 729.351 293.728 708.006 273.024 681.653C253.802 653.579 258.298 625.214 278.507 591.096C298.565 556.392 334.318 515.93 374.228 450.03L374.21 450.027Z"
      stroke="#475DF1"
      stroke-width="5"
      stroke-miterlimit="10"
    />
<path
      d="M372.627 456.297C416.209 392.53 442.289 311.724 472.633 245.195C503.683 179.394 538.998 127.879 617.263 139.443C689.833 148.427 785.148 224.184 815.777 322.311C849.853 419.711 819.243 539.473 719.618 619.76C621.691 702.675 499.543 731.847 416.706 735.139C330.725 738.16 284.072 715.303 264.518 687.927C246.608 658.834 251.848 630.036 272.885 596.043C293.792 561.431 330.497 521.625 372.645 456.299L372.627 456.297Z"
      stroke="#4563F0"
      stroke-width="5"
      stroke-miterlimit="10"
    />
<path
      d="M370.877 462.471C416.617 399.34 445.363 318.748 478.277 252.356C511.892 186.728 549.692 135.303 629.593 147.887C703.74 157.803 799.152 235.431 827.275 335.011C859.006 433.868 823.467 554.678 718.78 634.271C615.727 716.563 490.214 743.843 406.424 745.474C319.354 746.779 273.991 722.425 255.695 694.031C239.221 663.928 245.276 634.706 267.14 600.838C288.914 566.33 326.515 527.18 370.877 462.471Z"
      stroke="#4269EF"
      stroke-width="5"
      stroke-miterlimit="10"
    />
<path
      d="M368.943 468.548C416.837 406.079 448.245 325.736 483.74 259.519C519.918 194.081 560.182 142.778 641.713 156.427C717.415 167.298 812.811 246.828 838.338 347.865C867.599 448.179 826.994 569.982 717.166 648.807C608.906 730.411 480.091 755.735 395.424 755.672C307.36 755.229 263.446 729.391 246.549 700C231.636 668.904 238.543 639.245 261.269 605.508C283.926 571.115 322.385 532.633 368.961 468.551L368.943 468.548Z"
      stroke="#406FED"
      stroke-width="5"
      stroke-miterlimit="10"
    />
<path
      d="M366.861 474.523C416.871 412.738 450.954 332.673 489.01 266.655C527.762 201.444 570.504 150.292 653.607 165.034C730.807 176.888 826.128 258.356 848.919 360.822C875.621 462.581 829.794 585.338 714.764 663.313C601.237 744.149 469.146 767.458 383.732 765.683C294.784 763.472 252.497 736.165 237.123 705.786C223.913 673.699 231.707 643.617 255.295 610.019C278.835 575.733 318.132 537.943 366.879 474.526L366.861 474.523Z"
      stroke="#3D75EC"
      stroke-width="5"
      stroke-miterlimit="10"
    />
<path
      d="M364.614 480.403C416.733 419.337 453.47 339.574 494.119 273.786C535.441 208.838 580.657 157.855 665.293 173.719C743.967 186.589 839.102 270.016 859.051 373.904C883.052 477.097 831.868 600.752 711.574 677.807C592.717 757.803 457.397 779.024 371.328 775.512C281.591 771.502 241.122 742.772 227.379 711.41C215.993 678.368 224.748 647.846 249.195 614.396C273.619 580.225 313.716 543.132 364.632 480.397L364.614 480.403Z"
      stroke="#3B7BEB"
      stroke-width="5"
      stroke-miterlimit="10"
    />
<path
      d="M362.217 486.19C416.407 425.865 455.811 346.441 499.031 280.907C542.903 216.237 590.607 165.461 676.715 182.484C756.808 196.388 851.681 281.808 868.662 387.111C889.857 491.723 833.177 616.23 707.541 692.281C583.277 771.355 444.771 790.429 358.175 785.173C267.775 779.355 229.268 749.204 217.331 716.892C207.912 682.905 217.68 651.952 242.988 618.65C268.31 584.605 309.155 548.21 362.216 486.199L362.217 486.19Z"
      stroke="#3882E9"
      stroke-width="5"
      stroke-miterlimit="10"
    />
<path
      d="M359.673 491.876C415.913 432.315 457.98 353.257 503.767 288.003C550.201 223.65 600.371 173.112 687.932 191.31C769.402 206.288 863.921 293.705 877.811 400.405C896.094 506.421 833.747 631.72 702.726 706.69C572.995 784.761 431.366 801.627 344.335 794.603C253.384 786.956 217.048 755.431 207.004 722.183C199.692 687.28 210.527 655.893 236.713 622.742C262.934 588.824 304.505 553.142 359.692 491.87L359.673 491.876Z"
      stroke="#3688E8"
      stroke-width="5"
      stroke-miterlimit="10"
    />
<path
      d="M356.962 497.466C415.247 438.705 459.956 360.036 508.306 295.099C557.298 231.087 609.931 180.807 698.884 200.224C781.692 216.298 875.745 305.751 886.439 413.824C901.667 521.233 833.518 647.268 697.053 721.068C561.794 798.046 417.069 812.645 329.747 803.856C238.354 794.369 204.365 761.495 196.356 727.329C191.291 691.531 203.249 659.709 230.311 626.717C257.449 592.928 299.691 557.969 356.98 497.469L356.962 497.466Z"
      stroke="#338EE7"
      stroke-width="5"
      stroke-miterlimit="10"
    />
<path
      d="M354.14 502.96C414.413 445.017 461.777 366.767 512.703 302.175C564.25 238.532 619.341 188.543 709.628 209.208C793.718 226.396 887.229 317.91 894.586 427.345C906.653 536.132 832.567 662.841 690.561 735.385C549.696 811.197 401.956 823.458 314.454 812.884C222.729 801.536 191.278 767.367 185.444 732.304C182.767 695.638 195.899 663.389 223.837 630.557C251.892 596.896 294.752 562.662 354.14 502.96Z"
      stroke="#3194E5"
      stroke-width="5"
      stroke-miterlimit="10"
    />
<path
      d="M351.169 508.352C413.427 451.254 463.425 373.456 516.888 309.229C570.967 245.988 628.512 196.318 720.114 218.245C805.443 236.586 898.321 330.175 902.199 440.944C910.985 551.083 830.789 678.405 683.22 749.609C536.687 824.174 385.977 834.032 298.421 821.673C206.51 808.458 177.753 773.024 174.253 737.096C174.101 699.6 188.464 666.913 217.312 634.254C246.3 600.734 289.74 567.228 351.169 508.352Z"
      stroke="#2E9AE4"
      stroke-width="5"
      stroke-miterlimit="10"
    />
<path
      d="M348.051 513.652C412.253 457.42 464.897 380.111 520.911 316.279C577.537 253.468 637.514 204.14 730.37 227.376C816.883 246.889 909.016 342.574 909.313 454.652C914.693 566.126 828.237 693.985 675.024 763.775C522.768 836.978 369.132 844.377 281.666 830.234C189.677 815.14 163.824 778.49 162.778 741.731C165.311 703.428 180.955 670.32 210.697 637.831C240.618 604.451 284.601 571.686 348.068 513.654L348.051 513.652Z"
      stroke="#2CA0E2"
      stroke-width="5"
      stroke-miterlimit="10"
    />
<path
      d="M344.821 518.845C410.946 463.513 466.198 386.706 524.76 323.296C583.91 260.938 646.334 211.982 740.388 236.544C828.045 257.252 919.322 355.061 915.895 468.429C917.747 581.212 824.877 709.551 665.981 777.823C507.921 849.607 351.439 854.486 264.172 838.548C172.215 821.564 149.473 783.762 151.039 746.194C156.394 707.13 173.393 673.593 204.028 641.274C234.882 608.035 279.371 576.015 344.837 518.857L344.821 518.845Z"
      stroke="#29A7E1"
      stroke-width="5"
      stroke-miterlimit="10"
    />
<path
      d="M341.459 523.949C409.453 469.526 467.343 393.261 528.429 330.305C590.082 268.434 654.966 219.878 750.142 245.793C838.886 267.722 929.233 367.663 921.944 482.293C920.126 596.364 820.692 725.108 656.054 791.773C492.168 862.027 332.884 864.339 245.942 846.597C154.161 827.725 134.721 788.816 139.021 750.474C147.337 710.677 165.762 676.721 197.307 644.576C229.11 611.488 274.034 580.212 341.477 523.951L341.459 523.949Z"
      stroke="#27ADE0"
      stroke-width="5"
      stroke-miterlimit="10"
    />
<path
      d="M337.986 528.956C407.843 475.469 468.333 399.767 531.939 337.301C596.109 275.937 663.396 227.809 759.672 255.109C849.445 278.278 938.734 380.378 927.478 496.237C921.871 611.561 815.737 740.647 645.279 805.612C475.456 874.241 313.45 873.916 226.958 854.387C135.479 833.626 119.529 793.674 126.72 754.589C138.171 714.111 158.058 679.723 190.512 647.76C223.267 614.815 268.606 584.288 337.986 528.956Z"
      stroke="#24B3DE"
      stroke-width="5"
      stroke-miterlimit="10"
    />
<path
      d="M768.943 264.469C859.707 288.9 947.826 393.18 932.448 510.227C922.927 626.788 809.908 756.126 633.608 819.299C457.803 886.232 293.14 883.207 207.24 861.894C116.207 839.247 103.938 798.304 114.157 758.523C128.88 717.401 150.3 682.6 183.664 650.819C217.385 618.028 263.051 588.248 334.365 533.861C406.046 481.341 469.112 406.235 535.237 344.266C601.902 283.443 671.624 235.774 768.924 264.475L768.943 264.469Z"
      stroke="#22B9DD"
      stroke-width="5"
      stroke-miterlimit="10"
    />
</g>
<defs>
<clipPath id="clip0_370_1020">
<rect
        width="845.181"
        height="881.637"
        fill="white"
        transform="translate(0.961548 837.134) rotate(-81.9881)"
      />
</clipPath>
</defs>
</svg>
